<svg id="Layer_1" data-name="Layer 1" xmlns="http://www.w3.org/2000/svg" viewBox="0 0 500 500"><defs><style>.cls-1{fill:#c4c6c5;}.cls-2{fill:#ccc;}.cls-3{fill:#a8a8a8;}.cls-4{fill:#aaa;}</style></defs><title>automaid</title><rect class="cls-1" x="59.54" y="69.56" width="380.92" height="107.37" rx="12" ry="12"/><path class="cls-2" d="M85.51,176.92h329a0,0,0,0,1,0,0v310.9a12,12,0,0,1-12,12h-305a12,12,0,0,1-12-12V176.92A0,0,0,0,1,85.51,176.92Z"/><rect class="cls-3" x="156.87" y="229.88" width="27.77" height="216.99" rx="5.78" ry="5.78"/><rect class="cls-3" x="315.37" y="229.88" width="27.77" height="216.99" rx="5.78" ry="5.78"/><rect class="cls-3" x="236.12" y="229.88" width="27.77" height="216.99" rx="5.78" ry="5.78"/><path class="cls-1" d="M335.87.18H164.13A17.58,17.58,0,0,0,146.6,17.71V69.56H169V19H330.8V69.56h22.6V17.71A17.58,17.58,0,0,0,335.87.18Z"/><rect class="cls-4" x="85.51" y="176.92" width="328.98" height="12.63"/></svg>